<?xml version="1.0" encoding="UTF-8" standalone="no"?>
<!-- Generator: Adobe Illustrator 12.0.0, SVG Export Plug-In . SVG Version: 6.00 Build 51448)  -->
<!DOCTYPE svg  PUBLIC '-//W3C//DTD SVG 1.1//EN'  'http://www.w3.org/Graphics/SVG/1.1/DTD/svg11.dtd' [
	<!ENTITY ns_svg "http://www.w3.org/2000/svg">
	<!ENTITY ns_xlink "http://www.w3.org/1999/xlink">
]>
<svg id="Layer_1" xmlns="http://www.w3.org/2000/svg" xml:space="preserve" height="80" viewBox="0 0 177.951 80" width="177.95" version="1.1" overflow="visible" xmlns:xlink="http://www.w3.org/1999/xlink" enable-background="new 0 0 177.951 80">
<g fill="#F15D22" clip-rule="evenodd" fill-rule="evenodd">
	<path d="m151.45 38.582c1.1-0.88 2.543 1.135 3.033 2.448 1.391-0.979-0.725-2.596-0.553-3.988 5.555 1.591 3.361-7.18 8.881-7.117 2.51-6.584 7.59-3.371 10.488 0.348 0.221 0.281 1.428 0.736 1.514 0.977 1.893 5.323-6.686 12.512-12.797 12.664-1.561 0.041-0.861-0.926-2.518-1.453-3.46-1.117-6.35 0.278-8.04-3.879"/>
	<path d="m142.19 19.741c-2.332-0.85-2.57-2.817-4.537-2.935-0.148-4.17 0.572-8.883 4.846-10.055 0.012 0.502 0.014 0.998 0.021 1.496 0.961-0.218 0.367-1.94 1.977-1.526 0.094 0.423-0.189 0.472-0.494 0.506 11.33-5.17 8.38 11.742-1.82 12.514"/>
	<path d="m132.58 11.391c-7.24-0.239-9.76-3.387-11.111-8.827 2.512-1.503 8.738-4.226 12.965-1.187 1.69 4.193 1.82 8.09-1.86 10.014"/>
	<path d="m159.31 28.976c-2.066 1.282-5.131 1.584-7.459 2.605-1.639-0.344-2.225-1.764-3.035-2.948-0.367-1.656 1.018-0.825 1.492-0.522 0.367-3.255-1.641-4.058-2.588-5.953 0.811-2.591 3.064-6.084 5.918-5.082 0.494-4.467 8.545-5.05 10.465-1.654 2.82 5.012-5.92 9-4.79 13.554"/>
	<path d="m154.92 70.487c-0.012-2.355-0.932-3.775-1.088-5.977-1.977 2.244-8.137 2.268-7.527-2.389 2.26-0.404-0.738 1.377 1.518 0.982 0.99-0.686 0.02-3.271 2.457-2.537-0.088-0.588-0.916-0.414-1.506-0.482 0.516-1.439 1.492-1.676 2.98-1.035 3.268-6.066 10.852-10.404 18.322-10.756 0.248 1.066-0.701 0.957-1.482 1.021 1.15 0.869 2.658 1.012 3.996 0.439-0.254 0.404-0.5 0.814-0.477 1.506 5.963-0.381 7.045 8.469 4.676 12.414-3.34 5.554-15.56 7.898-21.87 6.814"/>
		<path d="m121.58 47.008c1.117-0.184 1.549-1.063 1.289-2.639l-2.182-13.289c-0.258-1.578-0.959-2.268-2.102-2.08-1.1 0.18-1.539 0.938-1.318 2.277l2.24 13.643c0.25 1.58 0.94 2.274 2.07 2.088z"/>
				<path d="m72.927 62.282c1.093-0.18 1.503-1.129 1.216-2.869l-3.55-21.622c-0.284-1.731-0.978-2.509-2.07-2.331-1.095 0.182-1.495 1.139-1.21 2.87l3.55 21.622c0.286 1.74 0.969 2.509 2.064 2.33z"/>
					<path d="m149.47 39.1c-6.678-1.923-7.6-12.414-14.664-12.268 1.404-3.75-1.877-6.764-4.111-8.43-2.551 2.09-6.295 0.072-5.043-2.92-1.531 0.374-0.951 0.365-2.496 0.034 1.078-1.054-0.268-1.42-0.039-2.993-0.73-0.262-2.57 0.619-2.504-0.462 0.191-0.854 0.645 0.091 1.494-0.022-4.15-4.839-9.225-4.188-16.549-4.752-0.908 1.06-1.262 1.895-1.459 2.519-4.066-2.588-14.26-0.333-17.418 3.749-1.585-0.056-1.651 1.352-3.485 1.046-3.505 4.417-8.859 7.022-13.839 9.691-7.725 4.147-15.142 7.217-22.895 9.622l0.943 5.744 10.321-1.694 1.125 6.849-10.322 1.695 2.736 16.656c0.298 1.811 1.063 2.613 2.302 2.408 1.246-0.203 1.716-1.209 1.42-3.014l-0.641-3.898 6.601-1.082 0.818 4.973c0.278 1.699 0.235 3.18-0.124 4.445 0.279-0.059 0.561-0.111 0.846-0.156 0.942-0.148 2.053-0.301 3.237-0.441-0.983-1.281-1.661-3.01-2.021-5.199l-3.574-21.769c-1.005-6.118 1.432-9.654 7.306-10.617 5.874-0.964 9.313 1.605 10.317 7.724l3.576 21.768c0.642 3.914-0.132 6.768-2.307 8.57 1.994 0.424 4.095 0.449 6.203 0.273l-6.455-39.221 6.846-1.124 0.176 1.071c0.636-0.836 1.419-1.333 2.368-1.488 4.099-0.673 6.894 0.575 8.39 3.735l0.137-0.638c0.705-3.109 2.24-4.865 4.604-5.255 3.506-0.575 5.668 1.583 6.473 6.474l5.244 31.932-3.52 0.578c0.822 5.133 3.852 8.176 7.834 9.678l-8.449-49.906 6.848-1.122 0.252 1.541c0.588-0.627 1.393-1.026 2.418-1.193 5.32-0.876 8.445 1.505 9.371 7.149l2.361 14.379c0.928 5.643-1.271 8.902-6.59 9.775-0.949 0.156-1.859-0.063-2.723-0.658l1.359 8.273 2.324 12.922c5.023-0.035 10.361-1.535 14.441-3.836 0.098-0.939-0.576-1.09-0.527-1.984 0.639 0.012 0.701 0.623 1.504 0.477 0.221-1.574-1.549-1.105-1.041-2.982 1.721 0.197 2.793-0.236 3.984-0.561 0.715-2.16 1.262-3.66-0.08-5.488 1.85-3.459 1.047-9.492 2.303-13.514 1.99-1.866 4.59-3.104 4.42-7.063z"/>
					<path d="m44.266 65.426l-2.911-17.74-2.361 0.387-1.125-6.847 2.359-0.39-0.811-4.938c-0.448 0.114-0.896 0.229-1.348 0.341-1.522 0.373-3.025 0.691-4.51 0.982 0.009 0.007 0.02 0.013 0.028 0.021 1.607 1.408 2.693 3.817 3.257 7.257l0.855 5.205-7.088 1.164-0.701-4.27c-0.382-2.326-1.288-3.379-2.715-3.146-1.429 0.236-1.917 1.709-1.469 4.443 0.312 1.893 1.564 3.238 3.763 4.051 3.493 1.256 5.534 2.09 6.139 2.525 2.328 1.592 3.822 4.371 4.47 8.313 0.653 3.984 0.535 6.904-0.331 8.746-1.079 2.283-3.52 3.738-7.303 4.361-3.552 0.582-6.171 0.164-7.864-1.258-1.561-1.328-2.629-3.789-3.219-7.379l-0.847-5.152 7.329-1.203 0.681 4.15c0.383 2.33 1.285 3.385 2.715 3.15 1.428-0.232 1.949-1.52 1.566-3.85-0.422-2.316-1.72-3.926-3.893-4.828l-6.119-2.451c-2.326-1.576-3.822-4.363-4.481-8.383-0.61-3.713-0.428-6.563 0.537-8.538 0.045-0.091 0.103-0.17 0.151-0.257-2.015 0.462-3.963 1.005-5.84 1.701-1.014 0.654-1.232 2.076-2.46 2.529-9.959 1.796-13.352 16.593-8.599 26.593 1.852-0.223 1.336 2.004 3.516 1.445 6.736 9.449 21.588 8.225 31.062 7.035 5.793-0.725 10.155-3.826 14.379-6.764-3.817-0.302-6.094-2.63-6.812-7.005z"/>
			<path d="m90.495 35.258c-0.258-1.578-0.939-2.271-2.055-2.089-1.155 0.19-1.606 1.069-1.349 2.646l4.99 30.285c1.172-0.219 2.305-0.43 3.383-0.594l-4.969-30.248z"/>
			<path d="m105.84 63.811l-4.871-29.665c-0.324-1.973-0.938-2.879-1.834-2.731-1.211 0.198-1.621 1.475-1.232 3.846l4.838 29.359c2.139 1.516 4.119 2.506 7.217 4.027 0.359-1.979-0.924-3.873-0.938-5.357l-3.18 0.521z"/>
</g>
</svg>
